# xmcd
# Track frame offsets:
# 150
# 14315
# 31377
# 48630
# 64875
# 80392
# 101332
# 114000
# 131267
# 146590
# 158930
# 169932
#
# Disc length: 2552 seconds
# Revision: 0
# Processed by: cddbd v1.5PL3 Copyright (c) Steve Scherf et al.
# Submitted via: VisiTrax 2.9.9.209 - For more info visit www.synapsa.com
#
DISCID=9509f60c
DTITLE=GLEN MITCHELL - A MILLION REASONS
DYEAR=1998
DGENRE=COUNTRY
TTITLE0=LITTLE MISS HOLLYWOOD
TTITLE1=A MILLION REASONS WHY
TTITLE2=TURN AROUND(I`LL BE THERE)
TTITLE3=CARIANNE(I`M IN LOVE)
TTITLE4=THE UNDERGROUND MAN
TTITLE5=LIKE LOVERS DO
TTITLE6=WALK TO THE LIGHT
TTITLE7=I`LL NEVER BE LONELY ENOUGH
TTITLE8=ANYTHING FOR YOU
TTITLE9=TO IN LOVE WITH YOU
TTITLE10=MANIC MITCHELL
TTITLE11=LITTLE MISS HOLLYWOOD RETURNS (EXTENDID VERSION)
EXTD=
EXTT0=
EXTT1=
EXTT2=
EXTT3=
EXTT4=
EXTT5=
EXTT6=
EXTT7=
EXTT8=
EXTT9=
EXTT10=
EXTT11=
PLAYORDER=
